<svg width="1440" height="1024" viewBox="0 0 1440 1024" fill="none" xmlns="http://www.w3.org/2000/svg">
<rect width="1440" height="1024" fill="#F5F5F5"/>
<g clip-path="url(#clip0_7_62)">
<rect width="1440" height="1024" fill="#41286D"/>
<rect x="650" y="285.926" width="574" height="73.0756" rx="36.5378" fill="#543589"/>
<ellipse cx="820.338" cy="284.852" rx="101.326" ry="37.6125" fill="#543589"/>
<ellipse cx="1025.18" cy="284.852" rx="101.326" ry="37.6125" fill="#543589"/>
<ellipse cx="905.781" cy="252.612" rx="101.326" ry="37.6125" fill="#543589"/>
<rect x="814" y="712.926" width="574" height="73.0756" rx="36.5378" fill="#543589"/>
<ellipse cx="984.338" cy="711.852" rx="101.326" ry="37.6125" fill="#543589"/>
<ellipse cx="1189.18" cy="711.852" rx="101.326" ry="37.6125" fill="#543589"/>
<ellipse cx="1069.78" cy="679.612" rx="101.326" ry="37.6125" fill="#543589"/>
<rect x="33" y="500.191" width="399.815" height="63.0457" rx="31.5229" fill="#543589"/>
<ellipse cx="151.647" cy="499.264" rx="70.578" ry="32.45" fill="#543589"/>
<ellipse cx="294.33" cy="499.264" rx="70.578" ry="32.45" fill="#543589"/>
<ellipse cx="211.162" cy="471.45" rx="70.578" ry="32.45" fill="#543589"/>
<path d="M405.31 56.7035C406.918 52.346 413.082 52.346 414.69 56.7035L420.019 71.1351C420.744 73.099 422.616 74.4033 424.71 74.4033H440.45C445.447 74.4033 447.354 80.9243 443.144 83.6158L431.555 91.0252C429.575 92.2911 428.744 94.765 429.558 96.9696L434.234 109.636C435.895 114.132 430.889 118.162 426.851 115.58L412.693 106.529C411.051 105.479 408.949 105.479 407.307 106.529L393.149 115.58C389.111 118.162 384.105 114.132 385.766 109.636L390.442 96.9696C391.256 94.765 390.425 92.2911 388.445 91.0252L376.856 83.6158C372.647 80.9243 374.553 74.4033 379.55 74.4033H395.29C397.384 74.4033 399.256 73.099 399.981 71.1351L405.31 56.7035Z" fill="#FFFDBC"/>
<path d="M707.81 632.704C709.418 628.346 715.582 628.346 717.19 632.704L719.713 639.534C720.438 641.498 722.31 642.802 724.403 642.802H731.062C736.059 642.802 737.965 649.323 733.755 652.015L729.514 654.727C727.534 655.993 726.703 658.467 727.517 660.671L729.387 665.736C731.047 670.233 726.042 674.263 722.003 671.681L715.193 667.327C713.551 666.277 711.449 666.277 709.807 667.327L702.997 671.681C698.958 674.263 693.953 670.233 695.613 665.736L697.483 660.671C698.297 658.467 697.466 655.993 695.486 654.727L691.245 652.015C687.035 649.323 688.941 642.802 693.938 642.802H700.597C702.69 642.802 704.562 641.498 705.287 639.534L707.81 632.704Z" fill="#FFFDBC"/>
<path d="M1435.31 210.704C1436.92 206.346 1443.08 206.346 1444.69 210.704L1450.02 225.135C1450.74 227.099 1452.62 228.403 1454.71 228.403H1470.45C1475.45 228.403 1477.35 234.924 1473.14 237.616L1461.55 245.025C1459.57 246.291 1458.74 248.765 1459.56 250.97L1464.23 263.636C1465.89 268.132 1460.89 272.162 1456.85 269.58L1442.69 260.529C1441.05 259.479 1438.95 259.479 1437.31 260.529L1423.15 269.58C1419.11 272.162 1414.11 268.132 1415.77 263.636L1420.44 250.97C1421.26 248.765 1420.43 246.291 1418.45 245.025L1406.86 237.616C1402.65 234.924 1404.55 228.403 1409.55 228.403H1425.29C1427.38 228.403 1429.26 227.099 1429.98 225.135L1435.31 210.704Z" fill="#FFFDBC"/>
<path d="M-3.69049 210.704C-2.08157 206.346 4.08157 206.346 5.69049 210.704L11.019 225.135C11.7441 227.099 13.616 228.403 15.7095 228.403H31.4504C36.4471 228.403 38.3535 234.924 34.1437 237.616L22.555 245.025C20.575 246.291 19.7438 248.765 20.5578 250.97L25.2344 263.636C26.8946 268.132 21.8889 272.162 17.8506 269.58L3.69335 260.529C2.05125 259.479 -0.0512543 259.479 -1.69335 260.529L-15.8506 269.58C-19.8888 272.162 -24.8946 268.132 -23.2344 263.636L-18.5578 250.97C-17.7438 248.765 -18.575 246.291 -20.555 245.025L-32.1437 237.616C-36.3535 234.924 -34.447 228.403 -29.4503 228.403H-13.7095C-11.616 228.403 -9.74414 227.099 -9.01901 225.135L-3.69049 210.704Z" fill="#FFFDBC"/>
<path d="M1400.81 588.704C1402.42 584.346 1408.58 584.346 1410.19 588.704L1412.71 595.534C1413.44 597.498 1415.31 598.802 1417.4 598.802H1424.06C1429.06 598.802 1430.97 605.323 1426.76 608.015L1422.51 610.727C1420.53 611.993 1419.7 614.467 1420.52 616.671L1422.39 621.736C1424.05 626.233 1419.04 630.263 1415 627.681L1408.19 623.327C1406.55 622.277 1404.45 622.277 1402.81 623.327L1396 627.681C1391.96 630.263 1386.95 626.233 1388.61 621.736L1390.48 616.671C1391.3 614.467 1390.47 611.993 1388.49 610.727L1384.24 608.015C1380.03 605.323 1381.94 598.802 1386.94 598.802H1393.6C1395.69 598.802 1397.56 597.498 1398.29 595.534L1400.81 588.704Z" fill="#FFFDBC"/>
<path d="M996.809 516.713C998.417 512.354 1004.58 512.354 1006.19 516.713L1007.81 521.115C1008.54 523.079 1010.41 524.384 1012.51 524.384H1016.27C1021.26 524.384 1023.17 530.903 1018.96 533.596L1017.06 534.814C1015.08 536.08 1014.25 538.553 1015.06 540.756L1016.04 543.402C1017.7 547.899 1012.69 551.928 1008.65 549.344L1004.19 546.492C1002.55 545.441 1000.45 545.441 998.805 546.492L994.347 549.344C990.31 551.928 985.302 547.899 986.962 543.402L987.938 540.756C988.751 538.553 987.92 536.08 985.942 534.814L984.038 533.596C979.829 530.903 981.736 524.384 986.732 524.384H990.494C992.588 524.384 994.46 523.079 995.185 521.115L996.809 516.713Z" fill="#FFFDBC"/>
<path d="M482.81 415.689C484.42 411.334 490.58 411.334 492.19 415.689L496.508 427.373C497.234 429.336 499.105 430.639 501.198 430.639H513.656C518.654 430.639 520.56 437.163 516.348 439.853L507.424 445.553C505.442 446.819 504.61 449.294 505.425 451.5L509.086 461.404C510.747 465.9 505.744 469.931 501.705 467.351L490.191 459.998C488.55 458.949 486.45 458.949 484.809 459.998L473.295 467.351C469.256 469.931 464.253 465.9 465.914 461.404L469.575 451.5C470.39 449.294 469.558 446.819 467.576 445.553L458.652 439.853C454.44 437.163 456.346 430.639 461.344 430.639H473.802C475.895 430.639 477.766 429.336 478.492 427.373L482.81 415.689Z" fill="#FFFDBC"/>
<path d="M858.311 148.672C859.922 144.319 866.078 144.319 867.689 148.672L870.997 157.611C871.723 159.573 873.594 160.875 875.686 160.875H884.859C889.858 160.875 891.763 167.402 887.548 170.091L881.294 174.08C879.31 175.346 878.477 177.824 879.294 180.031L881.937 187.174C883.6 191.668 878.599 195.702 874.558 193.124L865.689 187.466C864.049 186.42 861.951 186.42 860.311 187.466L851.442 193.124C847.401 195.702 842.4 191.668 844.063 187.174L846.706 180.031C847.523 177.824 846.69 175.346 844.706 174.08L838.452 170.091C834.237 167.402 836.142 160.875 841.141 160.875H850.314C852.406 160.875 854.277 159.573 855.003 157.611L858.311 148.672Z" fill="#FFFDBC"/>
<path d="M60.3095 710.704C61.9184 706.346 68.0816 706.346 69.6905 710.704L75.019 725.135C75.7441 727.099 77.616 728.403 79.7095 728.403H95.4504C100.447 728.403 102.354 734.924 98.1437 737.616L86.555 745.025C84.575 746.291 83.7438 748.765 84.5578 750.97L89.2344 763.636C90.8946 768.132 85.8889 772.162 81.8506 769.58L67.6933 760.529C66.0513 759.479 63.9487 759.479 62.3067 760.529L48.1494 769.58C44.1112 772.162 39.1054 768.132 40.7656 763.636L45.4422 750.97C46.2562 748.765 45.425 746.291 43.445 745.025L31.8563 737.616C27.6465 734.924 29.553 728.403 34.5497 728.403H50.2905C52.384 728.403 54.2559 727.099 54.981 725.135L60.3095 710.704Z" fill="#FFFDBC"/>
<path d="M201.933 78.1395C203.559 73.8891 209.556 73.8436 211.246 78.0689L211.422 78.5105C212.111 80.232 213.784 81.3557 215.638 81.3416L217.082 81.3306C221.236 81.2991 222.799 86.7544 219.259 88.928C217.556 89.973 216.854 92.0922 217.596 93.9468L217.662 94.1121C219.192 97.9374 215.001 101.525 211.457 99.4233L209.325 98.1585C207.729 97.2117 205.74 97.2268 204.158 98.1977L202.046 99.4946C198.535 101.65 194.289 98.1263 195.761 94.2783L195.824 94.112C196.538 92.2463 195.804 90.138 194.086 89.1189C190.513 86.9993 191.993 81.5209 196.147 81.4894L197.591 81.4785C199.445 81.4644 201.101 80.3155 201.763 78.5838L201.933 78.1395Z" fill="#FFFDBC"/>
<path d="M454.933 227.14C456.559 222.889 462.556 222.844 464.246 227.069L464.422 227.511C465.111 229.232 466.784 230.356 468.638 230.342L470.082 230.331C474.236 230.299 475.799 235.754 472.259 237.928C470.556 238.973 469.854 241.092 470.596 242.947L470.662 243.112C472.192 246.937 468.001 250.525 464.457 248.423L462.325 247.158C460.729 246.212 458.74 246.227 457.158 247.198L455.046 248.495C451.535 250.65 447.289 247.126 448.761 243.278L448.824 243.112C449.538 241.246 448.804 239.138 447.086 238.119C443.513 235.999 444.993 230.521 449.147 230.489L450.591 230.478C452.445 230.464 454.101 229.316 454.763 227.584L454.933 227.14Z" fill="#FFFDBC"/>
<path d="M1091.93 104.14C1093.56 99.8891 1099.56 99.8436 1101.25 104.069L1101.42 104.511C1102.11 106.232 1103.78 107.356 1105.64 107.342L1107.08 107.331C1111.24 107.299 1112.8 112.754 1109.26 114.928V114.928C1107.56 115.973 1106.85 118.092 1107.6 119.947L1107.66 120.112C1109.19 123.937 1105 127.525 1101.46 125.423L1099.33 124.158C1097.73 123.212 1095.74 123.227 1094.16 124.198L1092.05 125.495C1088.53 127.65 1084.29 124.126 1085.76 120.278L1085.82 120.112C1086.54 118.246 1085.8 116.138 1084.09 115.119V115.119C1080.51 112.999 1081.99 107.521 1086.15 107.489L1087.59 107.478C1089.45 107.464 1091.1 106.316 1091.76 104.584L1091.93 104.14Z" fill="#FFFDBC"/>
<path d="M227.933 297.14C229.559 292.889 235.556 292.844 237.246 297.069L237.422 297.511C238.111 299.232 239.784 300.356 241.638 300.342L243.082 300.331C247.236 300.299 248.799 305.754 245.259 307.928V307.928C243.556 308.973 242.854 311.092 243.596 312.947L243.662 313.112C245.192 316.937 241.001 320.525 237.457 318.423L235.325 317.158C233.729 316.212 231.74 316.227 230.158 317.198L228.046 318.495C224.535 320.65 220.289 317.126 221.761 313.278L221.824 313.112C222.538 311.246 221.804 309.138 220.086 308.119V308.119C216.513 305.999 217.993 300.521 222.147 300.489L223.591 300.478C225.445 300.464 227.101 299.316 227.763 297.584L227.933 297.14Z" fill="#FFFDBC"/>
<path d="M359.933 610.14C361.559 605.889 367.556 605.844 369.246 610.069L369.422 610.511C370.111 612.232 371.784 613.356 373.638 613.342L375.082 613.331C379.236 613.299 380.799 618.754 377.259 620.928V620.928C375.556 621.973 374.854 624.092 375.596 625.947L375.662 626.112C377.192 629.937 373.001 633.525 369.457 631.423L367.325 630.158C365.729 629.212 363.74 629.227 362.158 630.198L360.046 631.495C356.535 633.65 352.289 630.126 353.761 626.278L353.824 626.112C354.538 624.246 353.804 622.138 352.086 621.119V621.119C348.513 618.999 349.993 613.521 354.147 613.489L355.591 613.478C357.445 613.464 359.101 612.316 359.763 610.584L359.933 610.14Z" fill="#FFFDBC"/>
<path d="M696.933 12.1395C698.559 7.88907 704.556 7.84359 706.246 12.0689L706.422 12.5105C707.111 14.232 708.784 15.3557 710.638 15.3416L712.082 15.3306C716.236 15.2991 717.799 20.7544 714.259 22.928C712.556 23.973 711.854 26.0922 712.596 27.9468L712.662 28.1121C714.192 31.9374 710.001 35.5251 706.457 33.4233L704.325 32.1585C702.729 31.2117 700.74 31.2268 699.158 32.1977L697.046 33.4946C693.535 35.65 689.289 32.1263 690.761 28.2783L690.824 28.112C691.538 26.2463 690.804 24.138 689.086 23.1189C685.513 20.9993 686.993 15.5209 691.147 15.4894L692.591 15.4785C694.445 15.4644 696.101 14.3155 696.763 12.5838L696.933 12.1395Z" fill="#FFFDBC"/>
<path d="M1389.93 56.1395C1391.56 51.8891 1397.56 51.8436 1399.25 56.0689L1399.42 56.5105C1400.11 58.232 1401.78 59.3557 1403.64 59.3416L1405.08 59.3306C1409.24 59.2991 1410.8 64.7544 1407.26 66.928V66.928C1405.56 67.973 1404.85 70.0922 1405.6 71.9468L1405.66 72.1121C1407.19 75.9374 1403 79.5251 1399.46 77.4233L1397.33 76.1585C1395.73 75.2117 1393.74 75.2268 1392.16 76.1977L1390.05 77.4946C1386.53 79.65 1382.29 76.1263 1383.76 72.2783L1383.82 72.112C1384.54 70.2463 1383.8 68.138 1382.09 67.1189V67.1189C1378.51 64.9993 1379.99 59.5209 1384.15 59.4894L1385.59 59.4785C1387.45 59.4644 1389.1 58.3155 1389.76 56.5838L1389.93 56.1395Z" fill="#FFFDBC"/>
<path d="M1400.93 371.14C1402.56 366.889 1408.56 366.844 1410.25 371.069L1410.42 371.511C1411.11 373.232 1412.78 374.356 1414.64 374.342L1416.08 374.331C1420.24 374.299 1421.8 379.754 1418.26 381.928V381.928C1416.56 382.973 1415.85 385.092 1416.6 386.947L1416.66 387.112C1418.19 390.937 1414 394.525 1410.46 392.423L1408.33 391.158C1406.73 390.212 1404.74 390.227 1403.16 391.198L1401.05 392.495C1397.53 394.65 1393.29 391.126 1394.76 387.278L1394.82 387.112C1395.54 385.246 1394.8 383.138 1393.09 382.119V382.119C1389.51 379.999 1390.99 374.521 1395.15 374.489L1396.59 374.478C1398.45 374.464 1400.1 373.316 1400.76 371.584L1400.93 371.14Z" fill="#FFFDBC"/>
</g>
<rect x="62" y="899.006" width="326" height="91.7027" rx="45.8514" fill="#543589"/>
<ellipse cx="158.742" cy="897.657" rx="57.5477" ry="47.1999" fill="#543589"/>
<ellipse cx="275.082" cy="897.657" rx="57.5477" ry="47.1999" fill="#543589"/>
<ellipse cx="207.269" cy="857.2" rx="57.5477" ry="47.1999" fill="#543589"/>
<defs>
<clipPath id="clip0_7_62">
<rect width="1440" height="1024" fill="white"/>
</clipPath>
</defs>
</svg>
