<svg width="567" height="441" viewBox="0 0 567 441" fill="none" xmlns="http://www.w3.org/2000/svg">
<path d="M89.6641 87.3042C88.6612 76.7872 99.5817 69.2459 109.062 73.909L227.87 132.349C237.118 136.898 238.063 149.715 229.582 155.572L123.342 228.937C114.861 234.793 103.211 229.369 102.233 219.109L89.6641 87.3042Z" fill="#E4E4E4" stroke="#3F3F3F" stroke-width="3"/>
<path d="M116.322 125.78C115.928 115.881 125.975 108.943 135.092 112.818L222.998 150.181C232.789 154.342 234.143 167.668 225.388 173.713L141.286 231.792C132.531 237.837 120.549 231.851 120.125 221.221L116.322 125.78Z" fill="#ED9898" stroke="#3F3F3F" stroke-width="3"/>
<path d="M476.759 86.6034C477.762 76.0864 466.841 68.5451 457.361 73.2082L338.553 131.648C329.305 136.198 328.36 149.014 336.841 154.871L443.08 228.236C451.561 234.093 463.212 228.669 464.19 218.409L476.759 86.6034Z" fill="#E4E4E4" stroke="#3F3F3F" stroke-width="3"/>
<path d="M450.1 125.08C450.495 115.181 440.448 108.243 431.331 112.118L343.425 149.48C333.633 153.642 332.28 166.967 341.035 173.013L425.137 231.091C433.892 237.136 445.874 231.15 446.297 220.52L450.1 125.08Z" fill="#ED9898" stroke="#3F3F3F" stroke-width="3"/>
<path d="M292.69 124.078C416.81 124.078 516.871 203.43 516.871 307.858C516.871 333.993 510.62 355.211 499.382 372.362C488.139 389.52 471.843 402.703 451.608 412.659C411.087 432.595 354.954 439.5 292.69 439.5C230.427 439.5 174.293 432.595 133.772 412.659C113.537 402.703 97.2422 389.52 85.9998 372.362C74.7618 355.211 68.5096 333.993 68.5096 307.858C68.5097 203.43 168.57 124.078 292.69 124.078Z" fill="#E4E4E4" stroke="#3F3F3F" stroke-width="3"/>
<line x1="284.327" y1="332.674" x2="284.327" y2="274.807" stroke="#3F3F3F" stroke-width="5"/>
<path d="M278.825 297.108C281.327 301.441 287.581 301.442 290.083 297.108L306.491 268.689C308.993 264.356 305.865 258.939 300.861 258.939H268.046C263.042 258.94 259.915 264.356 262.417 268.689L278.825 297.108Z" fill="#ED9898" stroke="#3F3F3F"/>
<circle cx="210.325" cy="235.377" r="29.1515" fill="black" stroke="#3F3F3F"/>
<circle cx="358.583" cy="235.377" r="29.1515" fill="black" stroke="#3F3F3F"/>
<circle cx="216.914" cy="225.493" r="7.73652" fill="white" stroke="#3F3F3F"/>
<circle cx="366.819" cy="225.493" r="7.73652" fill="white" stroke="#3F3F3F"/>
<line y1="-0.5" x2="98.2876" y2="-0.5" transform="matrix(-0.924712 -0.380668 -0.380668 0.924712 213.217 290.324)" stroke="#3F3F3F"/>
<line y1="-0.5" x2="98.2876" y2="-0.5" transform="matrix(-0.997326 -0.0730775 -0.0730775 0.997326 210.194 296.622)" stroke="#3F3F3F"/>
<line x1="213.16" y1="302.768" x2="115.942" y2="317.231" stroke="#3F3F3F"/>
<line x1="367.311" y1="289.861" x2="458.199" y2="252.447" stroke="#3F3F3F"/>
<line x1="370.488" y1="296.123" x2="468.513" y2="288.941" stroke="#3F3F3F"/>
<line y1="-0.5" x2="98.2876" y2="-0.5" transform="matrix(0.989113 0.147156 0.147156 -0.989113 367.633 302.273)" stroke="#3F3F3F"/>
<path d="M284.957 332.388C285.135 339.246 284.08 343.255 282.86 345.582C281.433 348.302 278.039 349.609 276.472 350.879C273.303 353.446 268.833 354.219 263.9 354.675C260.474 354.991 258.978 353.58 257.262 352.989C255.45 352.366 254.066 351.101 253.056 349.707C251.832 348.016 251.043 346.779 250.332 345.091C249.735 343.673 249.442 341.107 248.97 339.17C248.673 337.955 248.436 336.657 248.229 335.176C248.198 334.76 248.198 334.291 248.198 333.808" stroke="#3F3F3F" stroke-width="5" stroke-linecap="round"/>
<path d="M284.858 332.388C284.681 339.246 285.736 343.255 286.956 345.582C288.382 348.302 291.777 349.609 293.344 350.879C296.513 353.446 300.983 354.219 305.916 354.675C309.342 354.991 310.838 353.58 312.554 352.989C314.366 352.366 315.75 351.101 316.76 349.707C317.984 348.016 318.772 346.779 319.484 345.091C320.081 343.673 320.374 341.107 320.846 339.17C321.143 337.955 321.379 336.657 321.587 335.176C321.617 334.76 321.617 334.291 321.617 333.808" stroke="#3F3F3F" stroke-width="5" stroke-linecap="round"/>
<circle cx="30.5336" cy="30.5336" r="30.0336" transform="matrix(1 0 0 -1 369.461 321.919)" fill="#ED9898" fill-opacity="0.54" stroke="#3F3F3F"/>
<circle cx="30.5336" cy="30.5336" r="30.0336" transform="matrix(1 0 0 -1 148.746 323.664)" fill="#ED9898" fill-opacity="0.54" stroke="#3F3F3F"/>
</svg>
